<svg xmlns="http://www.w3.org/2000/svg" width="247" height="250" fill="none" viewBox="0 0 247 250">
  <path fill="#F4511E" d="M127.71 4.246c0 2.345-1.885 4.246-4.21 4.246s-4.21-1.901-4.21-4.246C119.29 1.9 121.175 0 123.5 0s4.21 1.901 4.21 4.246Zm0 240.601c0 2.345-1.885 4.246-4.21 4.246s-4.21-1.901-4.21-4.246c0-2.345 1.885-4.246 4.21-4.246s4.21 1.901 4.21 4.246Zm59.081-222.361a4.19 4.19 0 0 1-5.751 1.554c-2.014-1.172-2.704-3.769-1.541-5.8a4.19 4.19 0 0 1 5.751-1.554c2.014 1.173 2.704 3.77 1.541 5.8ZM67.501 230.853a4.19 4.19 0 0 1-5.751 1.554c-2.014-1.172-2.704-3.769-1.541-5.8a4.191 4.191 0 0 1 5.751-1.554c2.014 1.172 2.704 3.769 1.541 5.8Zm161.412-162.78a4.19 4.19 0 0 1-5.751-1.554c-1.163-2.03-.473-4.627 1.541-5.8a4.19 4.19 0 0 1 5.751 1.554c1.163 2.031.473 4.628-1.541 5.8ZM22.297 188.374a4.191 4.191 0 0 1-5.751-1.554c-1.163-2.031-.473-4.628 1.54-5.8a4.19 4.19 0 0 1 5.752 1.554c1.163 2.031.473 4.628-1.54 5.8Zm220.493-59.581c-2.325 0-4.21-1.901-4.21-4.246 0-2.345 1.885-4.246 4.21-4.246s4.21 1.901 4.21 4.246c0 2.345-1.885 4.246-4.21 4.246Zm-238.58 0c-2.325 0-4.21-1.901-4.21-4.246 0-2.345 1.885-4.246 4.21-4.246s4.21 1.901 4.21 4.246c0 2.345-1.885 4.246-4.21 4.246Zm220.493 59.581c-2.014-1.172-2.704-3.769-1.541-5.8a4.19 4.19 0 0 1 5.751-1.554c2.014 1.172 2.704 3.769 1.541 5.8a4.19 4.19 0 0 1-5.751 1.554ZM18.087 68.073c-2.014-1.172-2.704-3.769-1.541-5.8a4.19 4.19 0 0 1 5.751-1.554c2.014 1.173 2.704 3.77 1.541 5.8a4.191 4.191 0 0 1-5.751 1.554Zm161.412 162.78c-1.163-2.031-.473-4.628 1.541-5.8a4.19 4.19 0 0 1 5.751 1.554c1.163 2.031.473 4.628-1.541 5.8a4.19 4.19 0 0 1-5.751-1.554ZM60.209 22.486c-1.163-2.03-.473-4.628 1.541-5.8a4.19 4.19 0 0 1 5.751 1.554c1.163 2.031.473 4.628-1.54 5.8a4.191 4.191 0 0 1-5.752-1.554ZM71 123.5c0 28.443 23.057 51.5 51.5 51.5 15.811 0 29.957-7.125 39.404-18.339l-17.741-20.032.004.086.948 19.317.048.968h-14.72v-5.072c-.17.179-.345.355-.524.528-3.84 3.712-9.194 5.568-16.064 5.568-6.869 0-12.224-1.856-16.064-5.568-3.84-3.712-5.76-8.917-5.76-15.616V112.2h15.104v24.192c0 3.413.619 5.845 1.856 7.296 1.238 1.408 2.902 2.112 4.992 2.112 2.134 0 3.798-.704 4.992-2.112 1.238-1.451 1.856-3.883 1.856-7.296V112.2h22.028l17.024 20.371V112.2h12.873C167.606 89.193 147.061 72 122.5 72 94.057 72 71 95.057 71 123.5Z"/>
  <path fill="#F4511E" fill-rule="evenodd" d="m121.402 24.767-5.411 99.85a8.54 8.54 0 0 0 .052 1.522 8.408 8.408 0 0 0 2.877 7.504l1.911 1.633V112.2h11.142l-6.838-87.475a1.87 1.87 0 0 0-3.733.042Zm23.713 131.265-.948-19.317 51.859 57.93a1.87 1.87 0 0 1-2.61 2.67l-48.301-41.283Z" clip-rule="evenodd"/>
</svg>
