<?xml version="1.0" standalone="no"?>
<!DOCTYPE svg PUBLIC "-//W3C//DTD SVG 20010904//EN"
 "http://www.w3.org/TR/2001/REC-SVG-20010904/DTD/svg10.dtd">
<svg version="1.0" xmlns="http://www.w3.org/2000/svg"
 width="1000.000000pt" height="1000.000000pt" viewBox="0 0 1000.000000 1000.000000"
 preserveAspectRatio="xMidYMid meet">
<metadata>
Created by potrace 1.14, written by Peter Selinger 2001-2017
</metadata>
<g transform="translate(0.000000,1000.000000) scale(0.100000,-0.100000)"
fill="#000000" stroke="none">
<path d="M4935 9986 c-43 -21 -73 -50 -86 -82 -14 -37 -21 -103 -12 -118 4 -6
8 -16 9 -23 3 -20 38 -61 68 -78 79 -48 187 -18 235 66 22 37 21 117 -1 159
-39 73 -143 110 -213 76z"/>
<path d="M2567 9346 c-43 -13 -94 -58 -109 -95 -51 -136 75 -270 210 -224 76
25 119 95 109 179 -11 103 -110 170 -210 140z"/>
<path d="M7340 9346 c-50 -16 -64 -26 -94 -70 -50 -75 -26 -184 51 -235 54
-35 147 -29 195 12 137 119 19 346 -152 293z"/>
<path d="M4942 9060 c-12 -12 -22 -26 -23 -33 -1 -7 -2 -25 -4 -42 -2 -16 -6
-84 -9 -150 -3 -66 -8 -163 -11 -215 -8 -130 -14 -235 -20 -360 -5 -104 -7
-145 -20 -375 -4 -66 -8 -150 -10 -186 -1 -37 -5 -71 -9 -78 -4 -6 -1 -11 6
-11 8 0 9 -3 3 -8 -5 -4 -11 -38 -11 -77 -1 -38 -5 -119 -8 -180 -4 -60 -8
-136 -9 -167 -2 -31 -5 -59 -7 -62 -3 -2 -43 -7 -90 -11 -47 -4 -87 -8 -90
-10 -3 -2 -21 -6 -40 -9 -95 -15 -247 -57 -365 -101 -73 -27 -276 -124 -285
-135 -3 -4 -16 -13 -30 -20 -28 -14 -188 -119 -206 -135 -6 -5 -36 -30 -65
-55 -72 -60 -214 -203 -264 -265 -22 -27 -46 -56 -53 -63 -21 -23 -142 -210
-142 -220 0 -6 -3 -12 -7 -14 -12 -5 -93 -166 -93 -183 0 -8 -4 -15 -10 -15
-5 0 -10 -6 -10 -14 0 -7 -13 -44 -28 -82 -16 -38 -29 -71 -30 -74 0 -3 -3
-12 -6 -20 -19 -58 -34 -125 -30 -132 3 -4 0 -8 -5 -8 -6 0 -10 -3 -9 -7 2 -7
-8 -70 -19 -118 -18 -83 -24 -143 -29 -284 -2 -73 -7 -137 -10 -142 -3 -5 -2
-9 3 -9 4 0 9 -28 10 -62 1 -66 9 -144 19 -193 3 -16 8 -41 10 -55 10 -58 12
-65 14 -65 1 0 3 -11 4 -25 0 -14 4 -30 8 -36 4 -6 10 -26 13 -44 3 -18 8 -37
11 -42 3 -4 7 -16 9 -25 14 -69 147 -373 167 -381 4 -2 8 -8 8 -14 0 -25 144
-235 224 -327 42 -48 205 -211 211 -211 3 0 16 -10 28 -23 30 -32 145 -117
157 -117 6 0 10 -4 10 -9 0 -4 20 -19 45 -32 25 -13 45 -27 45 -31 0 -5 6 -8
14 -8 8 0 16 -3 18 -7 2 -5 30 -21 63 -37 33 -16 68 -37 79 -45 10 -9 19 -15
20 -13 0 2 15 -2 31 -8 28 -10 41 -15 98 -40 45 -20 214 -72 282 -86 105 -23
106 -23 150 -29 22 -4 51 -8 65 -10 20 -4 195 -16 235 -17 52 -1 263 14 310
22 33 6 71 13 85 15 147 25 460 128 482 160 4 5 8 7 8 2 0 -21 362 196 383
230 4 7 12 13 16 13 10 0 234 -190 239 -202 2 -4 10 -8 18 -8 8 0 14 -4 14 -8
0 -5 49 -50 109 -100 129 -109 178 -151 203 -174 10 -10 20 -18 23 -18 2 0 15
-10 28 -22 26 -26 71 -65 142 -123 26 -22 58 -49 69 -60 12 -11 48 -42 81 -70
33 -27 71 -60 85 -72 37 -32 63 -54 110 -93 23 -19 60 -51 81 -70 21 -19 45
-39 52 -45 7 -5 44 -37 82 -70 100 -85 115 -98 135 -116 57 -53 125 -99 145
-99 33 0 75 37 75 67 0 30 -34 88 -55 97 -8 3 -15 13 -15 21 0 9 -4 13 -10 10
-5 -3 -10 -3 -10 2 0 8 -22 34 -119 139 -25 28 -68 77 -96 108 -27 32 -66 75
-85 95 -19 21 -62 69 -95 106 -33 38 -76 85 -95 106 -19 20 -60 65 -90 99
-105 120 -206 234 -245 276 -16 18 -55 60 -85 95 -30 34 -68 77 -85 95 -16 17
-47 51 -69 75 -65 74 -150 170 -176 199 -14 15 -54 60 -90 100 -36 40 -69 78
-75 84 -5 6 -44 49 -85 96 -41 47 -79 90 -85 96 -5 6 -39 44 -75 84 -36 40
-76 85 -90 100 -25 27 -111 125 -147 167 -40 46 -102 111 -112 117 -6 4 -8 -3
-6 -16 2 -13 6 -84 9 -158 4 -74 9 -175 11 -225 3 -49 7 -144 10 -210 3 -66 5
-120 5 -120 1 0 3 -17 5 -37 4 -34 2 -37 -18 -34 -12 2 -32 0 -44 -5 -14 -5
-23 -5 -23 1 0 9 -32 6 -50 -5 -6 -4 -17 -2 -25 5 -9 7 -15 8 -20 0 -4 -7 -12
-7 -26 0 -13 8 -25 7 -39 0 -14 -8 -20 -8 -20 0 0 7 -6 7 -21 0 -15 -8 -24 -8
-34 0 -9 8 -15 8 -20 0 -4 -6 -13 -7 -23 -2 -20 10 -33 10 -49 -1 -8 -5 -13
-4 -13 3 0 8 -6 8 -21 0 -15 -8 -24 -8 -34 0 -9 8 -15 8 -20 0 -4 -6 -13 -7
-23 -2 -20 10 -33 10 -49 -1 -15 -9 -15 -6 -15 121 -1 76 -8 101 -21 68 -7
-18 -97 -85 -160 -120 -43 -23 -146 -63 -187 -71 -8 -2 -15 -4 -15 -5 0 -2
-23 -7 -75 -15 -121 -19 -328 -19 -410 1 -14 3 -36 8 -50 10 -49 8 -60 10 -66
17 -4 4 -16 7 -26 7 -10 0 -26 4 -36 9 -9 5 -41 20 -69 32 -29 12 -53 25 -53
28 0 4 -13 12 -29 19 -103 45 -286 291 -294 393 -1 10 -5 19 -10 19 -4 0 -7 6
-6 13 2 6 0 26 -4 42 -4 17 -10 41 -13 55 -4 14 -8 156 -9 315 -2 160 -4 295
-5 300 -1 6 -1 15 0 20 5 27 2 454 -4 463 -3 6 -2 13 2 16 5 3 7 17 4 31 l-4
25 303 0 304 0 0 -512 c0 -282 3 -533 6 -558 13 -81 17 -97 34 -131 56 -111
171 -161 302 -132 96 22 167 96 189 198 15 67 17 151 18 618 l0 517 258 0
c142 1 314 1 383 1 69 0 151 0 184 -1 l58 0 64 -77 c77 -94 108 -131 132 -155
9 -10 17 -22 17 -27 0 -5 3 -11 8 -13 6 -3 46 -49 127 -146 11 -14 25 -30 30
-36 9 -10 137 -163 175 -209 8 -10 25 -31 38 -45 13 -15 35 -42 49 -59 14 -18
28 -33 32 -33 4 0 6 178 6 396 0 294 3 398 12 401 6 3 121 5 255 6 l243 2 -3
30 c-9 76 -151 450 -181 475 -3 3 -7 10 -8 17 -4 17 -65 117 -75 121 -4 2 -8
9 -8 16 0 10 -99 147 -160 221 -46 55 -194 200 -260 253 -36 29 -78 64 -95 78
-16 13 -33 24 -38 24 -4 0 -17 9 -29 20 -12 11 -34 26 -50 32 -15 7 -28 16
-28 19 0 9 -276 144 -325 159 -22 7 -44 16 -50 20 -5 4 -32 13 -60 20 -27 7
-54 16 -60 19 -5 3 -19 7 -30 8 -11 2 -27 6 -35 10 -8 3 -24 8 -35 9 -33 6
-89 17 -105 21 -8 2 -22 4 -30 5 -8 0 -32 4 -52 9 -37 10 -38 11 -39 57 -2 61
-7 137 -9 137 -1 0 -3 25 -5 55 -2 30 -6 87 -9 125 -13 166 -19 253 -20 292
-1 24 -3 43 -6 43 -3 0 -6 21 -7 48 -1 48 -11 197 -13 197 -1 0 -3 27 -5 60
-15 209 -22 304 -31 400 -3 33 -7 94 -10 135 -3 41 -7 98 -10 125 -2 28 -7 88
-9 135 -7 108 -20 149 -52 161 -37 14 -57 11 -81 -11z"/>
<path d="M834 7590 c-40 -9 -94 -41 -94 -57 0 -7 -4 -13 -10 -13 -12 0 -33
-77 -25 -90 3 -6 2 -10 -4 -10 -15 0 7 -58 36 -98 98 -132 312 -48 298 118 -8
98 -104 169 -201 150z"/>
<path d="M9101 7592 c-53 -8 -108 -59 -128 -117 -11 -33 -11 -91 0 -101 4 -4
7 -13 7 -20 0 -16 36 -55 72 -78 40 -26 115 -24 165 3 39 22 77 77 78 113 0 9
3 19 6 23 16 15 -45 150 -63 139 -4 -3 -8 -1 -8 4 0 21 -76 41 -129 34z"/>
<path d="M159 5171 c-47 -23 -71 -49 -86 -92 -17 -47 -16 -80 3 -127 24 -62
73 -96 142 -101 86 -5 166 61 176 146 5 39 -11 113 -25 113 -4 0 -11 9 -14 20
-3 11 -13 20 -21 20 -8 0 -17 6 -20 13 -3 8 -10 14 -17 15 -88 9 -105 9 -138
-7z"/>
<path d="M9704 5173 c-45 -24 -65 -45 -85 -88 -48 -110 25 -227 148 -234 149
-9 232 194 119 291 -49 43 -131 57 -182 31z"/>
<path d="M788 2760 c-42 -23 -75 -65 -80 -103 -2 -14 -7 -29 -10 -33 -10 -9
17 -90 41 -120 29 -37 67 -55 123 -59 86 -6 164 63 172 152 11 133 -128 225
-246 163z"/>
<path d="M9043 2754 c-145 -96 -73 -319 98 -309 64 4 133 50 147 98 3 12 6 47
6 77 0 43 -6 63 -27 94 -15 21 -27 35 -27 31 0 -5 -9 0 -20 10 -14 12 -41 20
-78 23 -49 3 -63 0 -99 -24z"/>
<path d="M7376 1021 c-3 -4 -16 -8 -28 -7 -26 1 -37 -5 -84 -52 -105 -103 -18
-287 132 -278 72 4 127 48 151 121 21 65 -15 164 -69 186 -15 6 -28 15 -28 19
0 5 -8 7 -17 5 -10 -1 -26 2 -35 6 -9 5 -19 5 -22 0z"/>
<path d="M2552 1007 c-66 -25 -110 -97 -104 -172 11 -143 186 -204 287 -99 47
48 57 100 34 183 -6 19 -49 66 -79 83 -31 19 -95 21 -138 5z"/>
<path d="M4945 367 c-38 -13 -99 -75 -104 -107 -17 -95 15 -171 85 -205 112
-53 230 18 239 143 9 117 -107 207 -220 169z"/>
</g>
</svg>
